HIERARCHY
ROOT Hips
{
	OFFSET 0.000000 89.005402 0.000000
	CHANNELS 6 Xposition Yposition Zposition Xrotation Yrotation Zrotation
	JOINT Spine
	{
		OFFSET 0.116900 10.681000 0.373400
		CHANNELS 3 Xrotation Yrotation Zrotation
		JOINT Spine1
		{
			OFFSET 0.000000 13.840401 0.053500
			CHANNELS 3 Xrotation Yrotation Zrotation
			JOINT Spine2
			{
				OFFSET 0.000000 14.712700 -0.366200
				CHANNELS 3 Xrotation Yrotation Zrotation
				JOINT Neck
				{
					OFFSET 0.000000 35.415497 -3.314200
					CHANNELS 3 Xrotation Yrotation Zrotation
					JOINT Head
					{
						OFFSET 0.000000 16.899200 1.218300
						CHANNELS 3 Xrotation Yrotation Zrotation
						JOINT HeadTop_End
						{
							OFFSET 0.000000 22.206207 2.192500
							CHANNELS 3 Xrotation Yrotation Zrotation
							End Site
							{
								OFFSET 0.000000 22.314178 0.000000
							}
						}
					}
				}
				JOINT LeftShoulder
				{
					OFFSET 12.896400 26.716293 -4.548400
					CHANNELS 3 Xrotation Yrotation Zrotation
					JOINT LeftArm
					{
						OFFSET 19.027000 -4.857010 -1.718400
						CHANNELS 3 Xrotation Yrotation Zrotation
						JOINT LeftForeArm
						{
							OFFSET 24.179897 0.000000 0.000000
							CHANNELS 3 Xrotation Yrotation Zrotation
							JOINT LeftHand
							{
								OFFSET 27.156403 0.000000 0.000000
								CHANNELS 3 Xrotation Yrotation Zrotation
								JOINT LeftHandIndex1
								{
									OFFSET 16.441200 0.000000 0.000000
									CHANNELS 3 Xrotation Yrotation Zrotation
									JOINT LeftHandIndex2
									{
										OFFSET 4.821899 0.000000 0.000000
										CHANNELS 3 Xrotation Yrotation Zrotation
										JOINT LeftHandIndex3
										{
											OFFSET 6.386497 0.000000 0.000000
											CHANNELS 3 Xrotation Yrotation Zrotation
											JOINT LeftHandIndex4
											{
												OFFSET 5.188988 0.000000 0.000000
												CHANNELS 3 Xrotation Yrotation Zrotation
												End Site
												{
													OFFSET -0.178703 5.185913 0.000177
												}
											}
										}
									}
								}
								JOINT LeftHandThumb1
								{
									OFFSET 6.534897 -5.032593 5.900300
									CHANNELS 3 Xrotation Yrotation Zrotation
									JOINT LeftHandThumb2
									{
										OFFSET 3.818176 -2.204422 2.204423
										CHANNELS 3 Xrotation Yrotation Zrotation
										JOINT LeftHandThumb3
										{
											OFFSET 3.252098 -1.877594 1.877601
											CHANNELS 3 Xrotation Yrotation Zrotation
											JOINT LeftHandThumb4
											{
												OFFSET 5.251778 -3.032120 3.032117
												CHANNELS 3 Xrotation Yrotation Zrotation
												End Site
												{
													OFFSET 0.000023 6.780014 0.000000
												}
											}
										}
									}
								}
							}
						}
					}
				}
				JOINT RightShoulder
				{
					OFFSET -12.896300 26.716293 -4.548400
					CHANNELS 3 Xrotation Yrotation Zrotation
					JOINT RightArm
					{
						OFFSET -19.027000 -4.857010 -1.718400
						CHANNELS 3 Xrotation Yrotation Zrotation
						JOINT RightForeArm
						{
							OFFSET -24.179897 0.000000 0.000000
							CHANNELS 3 Xrotation Yrotation Zrotation
							JOINT RightHand
							{
								OFFSET -27.156403 0.000000 0.000000
								CHANNELS 3 Xrotation Yrotation Zrotation
								JOINT RightHandThumb1
								{
									OFFSET -6.591202 -4.852203 5.988100
									CHANNELS 3 Xrotation Yrotation Zrotation
									JOINT RightHandThumb2
									{
										OFFSET -3.818176 -2.204422 2.204423
										CHANNELS 3 Xrotation Yrotation Zrotation
										JOINT RightHandThumb3
										{
											OFFSET -3.252098 -1.877594 1.877601
											CHANNELS 3 Xrotation Yrotation Zrotation
											JOINT RightHandThumb4
											{
												OFFSET -5.251778 -3.032120 3.032117
												CHANNELS 3 Xrotation Yrotation Zrotation
												End Site
												{
													OFFSET -0.000023 6.780014 0.000000
												}
											}
										}
									}
								}
								JOINT RightHandIndex1
								{
									OFFSET -16.029404 0.000000 0.000000
									CHANNELS 3 Xrotation Yrotation Zrotation
									JOINT RightHandIndex2
									{
										OFFSET -5.213303 0.000000 0.000000
										CHANNELS 3 Xrotation Yrotation Zrotation
										JOINT RightHandIndex3
										{
											OFFSET -6.386528 0.000000 0.000000
											CHANNELS 3 Xrotation Yrotation Zrotation
											JOINT RightHandIndex4
											{
												OFFSET -5.189026 0.000000 0.000000
												CHANNELS 3 Xrotation Yrotation Zrotation
												End Site
												{
													OFFSET 0.236702 5.183624 0.001972
												}
											}
										}
									}
								}
							}
						}
					}
				}
			}
		}
	}
	JOINT LeftUpLeg
	{
		OFFSET 14.073000 -7.904099 -1.463000
		CHANNELS 3 Xrotation Yrotation Zrotation
		JOINT LeftLeg
		{
			OFFSET -0.109806 -34.073280 4.093200
			CHANNELS 3 Xrotation Yrotation Zrotation
			JOINT LeftFoot
			{
				OFFSET 0.109806 -29.899420 -6.319000
				CHANNELS 3 Xrotation Yrotation Zrotation
				JOINT LeftToeBase
				{
					OFFSET 1.551100 -14.988700 20.535801
					CHANNELS 3 Xrotation Yrotation Zrotation
					JOINT LeftToe_End
					{
						OFFSET 0.221200 0.570800 13.248301
						CHANNELS 3 Xrotation Yrotation Zrotation
						End Site
						{
							OFFSET 0.000000 13.262435 0.000000
						}
					}
				}
			}
		}
	}
	JOINT RightUpLeg
	{
		OFFSET -13.839300 -7.904099 -1.463000
		CHANNELS 3 Xrotation Yrotation Zrotation
		JOINT RightLeg
		{
			OFFSET 0.109694 -34.073219 4.093300
			CHANNELS 3 Xrotation Yrotation Zrotation
			JOINT RightFoot
			{
				OFFSET -0.109694 -29.899384 -6.319200
				CHANNELS 3 Xrotation Yrotation Zrotation
				JOINT RightToeBase
				{
					OFFSET -1.551100 -14.988700 20.535801
					CHANNELS 3 Xrotation Yrotation Zrotation
					JOINT RightToe_End
					{
						OFFSET -0.221200 0.570900 13.248299
						CHANNELS 3 Xrotation Yrotation Zrotation
						End Site
						{
							OFFSET 0.000000 13.262440 0.000000
						}
					}
				}
			}
		}
	}
}
MOTION
Frames: 4
Frame Time: 0.033333
21.350883 78.616447 265.217163 -2.901070 -23.783014 1.260077 2.169613 1.196487 -0.006618 1.822649 0.448832 0.413670 1.818594 0.439206 0.416066 -3.527267 6.686159 4.947989 8.839668 40.195250 -16.893013 -0.000000 0.000002 0.000000 2.920664 3.359009 -10.986132 19.076100 -23.727123 -67.030138 -0.000061 -80.055875 -0.000047 -15.521024 -24.136287 22.481378 8.214669 -16.488975 -19.131555 0.381526 2.081397 -20.771994 0.131351 1.234861 -12.142755 0.000001 0.000000 -0.000000 -1.861737 -9.592179 -9.301267 3.463129 2.454270 -2.920656 -4.574951 5.735006 5.838820 0.000001 -0.000000 0.000000 11.195013 13.120984 2.756410 24.387918 38.387521 36.445681 -0.000276 87.691330 0.000300 3.586893 7.820062 -38.945841 -13.238814 13.184481 18.517135 7.301261 -18.369147 0.872451 -5.504754 -5.510970 -14.718532 -0.000000 -0.000000 0.000000 -1.014776 7.769729 21.962779 0.344573 -1.759742 22.156809 0.039784 -0.608323 7.489073 0.000000 -0.000000 0.000003 -39.222696 7.612894 4.260500 36.129300 4.671361 1.075154 -0.682235 -12.025225 -1.826920 -6.802103 -0.000009 0.000001 0.000001 0.000000 -0.000000 5.971219 0.500134 -2.607794 44.583913 -5.809936 -0.398344 -37.713071 -2.025862 4.726282 -26.884622 -0.000004 -0.000000 0.000000 -0.000001 -0.000000 
22.441639 78.827408 261.901642 -2.052456 -21.376793 0.948265 2.276072 1.559192 1.187865 1.898128 0.747050 0.816374 1.893461 0.749041 0.818003 -3.988907 6.724717 4.608543 8.835688 39.814768 -17.988739 -0.000000 -0.000001 0.000000 2.995448 3.643155 -11.736318 15.076210 -28.963373 -66.152472 0.000004 -76.452309 0.000001 -21.273164 -21.456341 18.643993 8.246749 -16.405727 -19.109184 0.381608 2.081659 -20.774625 0.131392 1.235118 -12.145245 -0.000000 0.000000 -0.000001 -1.858238 -9.458651 -9.115098 3.500318 2.635982 -2.896238 -4.549950 5.828693 5.863299 0.000001 -0.000001 0.000000 11.227450 13.331086 2.442024 21.199889 33.608007 40.022631 0.000125 87.373610 -0.000048 -2.757258 10.089366 -35.903917 -13.238817 13.184481 18.517135 7.301260 -18.369147 0.872449 -5.504754 -5.510971 -14.718528 -0.000001 -0.000001 0.000001 -1.014778 7.769729 21.962781 0.344578 -1.759741 22.156809 0.039785 -0.608322 7.489068 0.000001 -0.000002 0.000002 -41.181342 7.537489 4.284000 32.900676 8.647357 1.117815 0.281556 -13.416231 -1.491549 -6.554842 -0.000006 0.000000 -0.000000 -0.000002 -0.000000 7.103432 0.049700 0.665445 37.217940 -9.502392 -0.399356 -40.623677 -0.490885 0.224035 -15.772003 0.000001 0.000001 0.000001 0.000001 0.000000 
23.375742 79.302162 258.590149 -1.267997 -18.661612 0.940774 2.360704 1.406789 1.990486 1.958100 0.617260 1.023038 1.955288 0.632178 1.023540 -4.329955 6.663478 4.450355 8.512376 39.257537 -18.372362 -0.000000 0.000000 -0.000000 3.067905 3.794777 -12.514793 9.749938 -33.074587 -66.020568 0.000036 -71.644477 0.000034 -24.306830 -17.268511 13.207936 8.260613 -16.371023 -19.099323 0.381550 2.081440 -20.772378 0.131343 1.234901 -12.143139 -0.000000 -0.000000 -0.000002 -1.863751 -9.412381 -9.037056 3.515050 2.711926 -2.884192 -4.541423 5.868296 5.875282 0.000000 0.000002 0.000002 11.198114 13.599742 2.542601 17.029007 28.644249 45.117781 -0.000959 84.980333 0.001025 -13.227902 11.720933 -31.075503 -13.238813 13.184481 18.517138 7.301260 -18.369147 0.872450 -5.504755 -5.510971 -14.718532 -0.000001 -0.000001 0.000000 -1.014777 7.769729 21.962782 0.344576 -1.759741 22.156808 0.039784 -0.608323 7.489069 0.000001 -0.000002 -0.000004 -40.920626 8.008119 2.907435 24.566985 7.301795 1.229539 7.367333 -13.726292 0.641044 -6.275407 -0.000000 0.000002 -0.000000 0.000000 0.000000 3.832996 -0.095453 2.020206 36.555227 -9.762126 -0.356013 -39.218232 -0.387626 -0.629918 -9.522303 -0.000004 -0.000002 -0.000000 0.000002 0.000000 
24.185699 79.954155 255.353317 -0.479943 -15.541732 1.113381 2.362353 0.729895 2.365196 1.956792 0.073079 1.041809 1.958879 0.096235 1.042328 -4.573899 6.501373 4.502109 7.968532 38.557705 -17.877501 -0.000000 -0.000001 0.000000 3.065060 3.536153 -12.780860 2.690627 -35.395389 -67.863264 -0.000017 -64.283241 -0.000027 -24.471987 -12.699454 5.594192 8.171750 -16.599484 -19.150402 0.381030 2.080129 -20.758589 0.131062 1.233568 -12.129797 -0.000000 -0.000000 0.000000 -1.883760 -9.796649 -9.550784 3.406933 2.215795 -2.946131 -4.620734 5.614546 5.813648 -0.000001 -0.000001 0.000001 11.083667 13.742089 3.259038 13.128249 24.418920 49.872853 0.000225 80.539303 -0.000227 -27.224099 11.900806 -25.121569 -13.238813 13.184481 18.517135 7.301259 -18.369147 0.872447 -5.504756 -5.510970 -14.718532 0.000001 0.000001 -0.000000 -1.014778 7.769728 21.962781 0.344576 -1.759740 22.156814 0.039786 -0.608322 7.489068 -0.000001 0.000000 0.000002 -40.130479 8.655783 0.872615 20.520248 4.648710 1.338658 10.657306 -13.083860 3.579475 -5.917296 0.000001 0.000001 0.000000 0.000001 0.000000 -0.726594 -0.329649 2.711452 37.862915 -9.356276 -0.370534 -36.519211 -0.201593 -0.861455 -8.265886 -0.000003 0.000001 -0.000000 0.000000 0.000000 
